# xmcd
#
# Track frame offsets:
#	150
#	14590
#	30981
#	53895
#	67017
#	84268
#	96870
#	120573
#	136049
#	153451
#	173479
#	189231
#
# Disc length: 2782 seconds
# Revision: 0
# Processed by: cddbd v1.5.2PL0 Copyright (c) Steve Scherf et al.
# Submitted via: dBpowerAMP V12.0
#
DISCID=8c0adc0c
DTITLE=Aubrey and Martin - The Best of The Wine
DYEAR=2004
DGENRE=Country
TTITLE0=Nothin I Can Do
TTITLE1=Fishin Time
TTITLE2=Help Me Make it - For The Goodtimes
TTITLE3=She Wears My Ring
TTITLE4=Camooweal
TTITLE5=Let's Chase Each Other
TTITLE6=Seven Spanish Angels
TTITLE7=I'd Surrender All
TTITLE8=Facination
TTITLE9=Maggie
TTITLE10=Mack The Knife
TTITLE11=The Last of The Wine
EXTD=
EXTT0=
EXTT1=
EXTT2=
EXTT3=
EXTT4=
EXTT5=
EXTT6=
EXTT7=
EXTT8=
EXTT9=
EXTT10=
EXTT11=
PLAYORDER=
